<svg width="17" height="17" viewBox="0 0 17 17" fill="none" xmlns="http://www.w3.org/2000/svg">
<path d="M6.99395 7.99039C7.34673 7.81294 7.61344 7.6153 7.7962 7.40172C8.12135 7.01706 8.28181 6.50702 8.28181 5.87478C8.28181 5.25954 8.12135 4.73356 7.80045 4.29259C7.26491 3.57428 6.35852 3.20663 5.07704 3.1875H0V13.5509H4.73383C5.26724 13.5509 5.76135 13.5052 6.21826 13.4117C6.67517 13.3171 7.07046 13.1439 7.40517 12.891C7.70269 12.6711 7.95134 12.398 8.14898 12.076C8.46138 11.5894 8.61758 11.0379 8.61758 10.4237C8.61758 9.82867 8.48051 9.32181 8.20849 8.90528C7.93328 8.48875 7.52949 8.18378 6.99395 7.99039ZM2.09436 4.98752H4.38105C4.88365 4.98752 5.29806 5.04171 5.62321 5.14904C5.99937 5.30524 6.18745 5.62295 6.18745 6.10749C6.18745 6.54209 6.044 6.84599 5.76029 7.01706C5.47445 7.18814 5.10361 7.27421 4.64882 7.27421H2.09436V4.98752ZM5.71034 11.5702C5.45745 11.6924 5.10148 11.753 4.64563 11.753H2.09436V8.98923H4.6807C5.13123 8.99241 5.48189 9.05192 5.73266 9.16349C6.17895 9.36538 6.40103 9.73516 6.40103 10.276C6.40103 10.9136 6.17151 11.3429 5.71034 11.5702Z" fill="#1D1D1D"/>
<path d="M15.3664 3.67188H10.8643V4.96185H15.3664V3.67188Z" fill="#1D1D1D"/>
<path d="M16.9298 8.76085C16.8363 8.16049 16.6301 7.63238 16.3092 7.17654C15.9575 6.66012 15.5112 6.28184 14.9682 6.04275C14.4274 5.80261 13.8185 5.68254 13.1406 5.6836C12.0026 5.6836 11.0781 6.03957 10.363 6.74619C9.65 7.45493 9.29297 8.47395 9.29297 9.80219C9.29297 11.2186 9.68719 12.2419 10.4799 12.8699C11.2694 13.4989 12.1811 13.8124 13.216 13.8124C14.4688 13.8124 15.4432 13.4394 16.1392 12.6956C16.5844 12.2259 16.8363 11.7637 16.8915 11.31H14.8174C14.6973 11.5342 14.5581 11.7095 14.3987 11.837C14.1097 12.0708 13.7335 12.1877 13.2724 12.1877C12.8335 12.1877 12.4616 12.091 12.1513 11.8987C11.6392 11.5905 11.3714 11.0507 11.3374 10.2825H16.9978C17.0063 9.62048 16.985 9.11151 16.9298 8.76085ZM11.3884 8.95955C11.4628 8.4612 11.6434 8.06592 11.9303 7.77371C12.2172 7.48256 12.6231 7.33592 13.1427 7.33486C13.6219 7.33486 14.0225 7.47193 14.3488 7.74714C14.6707 8.02448 14.8524 8.4272 14.8896 8.95955H11.3884Z" fill="#1D1D1D"/>
</svg>
