<svg width="23" height="20" viewBox="0 0 23 20" fill="none" xmlns="http://www.w3.org/2000/svg">
<path d="M20.7 0H2.3C1.692 0.00330441 1.10993 0.268155 0.681083 0.736638C0.252234 1.20512 0.0114923 1.83912 0.0114999 2.5L0 17.5C0.00165548 18.1625 0.244508 18.7973 0.675483 19.2658C1.10646 19.7342 1.69051 19.9982 2.3 20H20.7C21.3095 19.9982 21.8935 19.7342 22.3245 19.2658C22.7555 18.7973 22.9983 18.1625 23 17.5V2.5C22.9983 1.83751 22.7555 1.20267 22.3245 0.734221C21.8935 0.265769 21.3095 0.00179943 20.7 0ZM20.7 5L11.5 11.25L2.3 5V2.5L11.5 8.75L20.7 2.5V5Z" fill="#1D1D1D"/>
</svg>
