<svg width="16" height="16" viewBox="0 0 16 16" fill="none" xmlns="http://www.w3.org/2000/svg">
<path d="M8 0C3.589 0 0 3.589 0 8C0 12.411 3.589 16 8 16C12.411 16 16 12.411 16 8C16 3.589 12.411 0 8 0ZM8 15C4.14 15 1 11.859 1 8C1 4.14 4.14 1 8 1C11.859 1 15 4.14 15 8C15 11.859 11.859 15 8 15Z" fill="#1D1D1D"/>
<path d="M8.00041 2C7.58041 2 7.17041 2.044 6.77441 2.126C7.50241 3.158 8.16341 4.232 8.74541 5.345C9.84641 4.832 10.8824 4.17 11.8284 3.38C10.7894 2.518 9.45541 2 8.00041 2Z" fill="#1D1D1D"/>
<path d="M12.5417 4.08594C11.5127 4.95294 10.3807 5.67194 9.17871 6.23394C9.44171 6.78194 9.68571 7.33694 9.91171 7.90094C11.2397 7.62794 12.6217 7.60294 13.9917 7.82994C13.9517 6.39994 13.4137 5.09594 12.5417 4.08594Z" fill="#1D1D1D"/>
<path d="M5.77018 2.43359C3.96918 3.15559 2.60318 4.72359 2.15918 6.64859C4.10118 6.73159 6.02318 6.40759 7.81218 5.72459C7.21118 4.58359 6.53018 3.48359 5.77018 2.43359Z" fill="#1D1D1D"/>
<path d="M8.26 6.62891C6.528 7.30391 4.678 7.6719 2.797 7.6719C2.538 7.6719 2.278 7.65591 2.018 7.6419C2.011 7.7609 2 7.8789 2 7.9999C2 9.4729 2.533 10.8209 3.414 11.8649C4.855 10.0759 6.792 8.7939 8.936 8.1499C8.727 7.6359 8.501 7.12991 8.26 6.62891Z" fill="#1D1D1D"/>
<path d="M10.2773 8.84981C10.7543 10.1798 11.1283 11.5468 11.4023 12.9408C12.7543 12.0078 13.6983 10.5348 13.9353 8.83281C12.7093 8.61581 11.4703 8.62581 10.2773 8.84981Z" fill="#1D1D1D"/>
<path d="M9.29602 9.08203C7.28002 9.67103 5.45902 10.881 4.12402 12.578C5.17002 13.465 6.52102 14.002 8.00002 14.002C8.88802 14.002 9.72902 13.804 10.487 13.457C10.212 11.963 9.81202 10.501 9.29602 9.08203Z" fill="#1D1D1D"/>
</svg>
