<svg width="21" height="20" viewBox="0 0 21 20" fill="none" xmlns="http://www.w3.org/2000/svg">
<path d="M18.375 8.75V6.25H17.0625V8.75H14.4375V10H17.0625V12.5H18.375V10H21V8.75H18.375Z" fill="#1D1D1D"/>
<path d="M6.5625 8.75V11.25H10.2756C9.7335 12.705 8.274 13.75 6.5625 13.75C4.39162 13.75 2.625 12.0675 2.625 10C2.625 7.9325 4.39162 6.25 6.5625 6.25C7.50356 6.25 8.40919 6.57125 9.11269 7.155L10.8373 5.27C9.65606 4.29 8.13881 3.75 6.5625 3.75C2.94394 3.75 0 6.55375 0 10C0 13.4462 2.94394 16.25 6.5625 16.25C10.1811 16.25 13.125 13.4462 13.125 10V8.75H6.5625Z" fill="#1D1D1D"/>
</svg>
