<svg width="46" height="46" viewBox="0 0 46 46" fill="none" xmlns="http://www.w3.org/2000/svg">
<rect x="1" y="1" width="44" height="44" rx="22" stroke="white" stroke-width="2"/>
<path d="M24.3385 28.4375V28.7875H24.6885H26.9385C27.0334 28.7875 27.1057 28.8393 27.1348 28.9C27.1634 28.9598 27.1539 29.028 27.1061 29.0791L27.1048 29.0804L23.1679 33.3298C23.1678 33.3299 23.1678 33.33 23.1677 33.3301C23.1283 33.3722 23.0676 33.4 23.001 33.4C22.9329 33.4 22.8733 33.3722 22.8353 33.3309L22.8348 33.3304L18.8978 29.0809C18.8977 29.0809 18.8976 29.0808 18.8976 29.0807C18.8465 29.0253 18.8395 28.9573 18.8666 28.9016L18.867 28.9007C18.8964 28.8396 18.9696 28.7875 19.0635 28.7875H21.3135H21.6635V28.4375V21.5312C21.6635 21.4499 21.7397 21.35 21.876 21.35H24.126C24.2624 21.35 24.3385 21.4499 24.3385 21.5312V28.4375Z" fill="white" stroke="white" stroke-width="0.7"/>
<path d="M29.1875 32.6875V35.875H16.8125V32.6875H14.5625V36.9375C14.5625 37.5251 15.0665 38 15.6875 38H30.3125C30.9346 38 31.4375 37.5251 31.4375 36.9375V32.6875H29.1875Z" fill="white"/>
<path d="M13.8945 14.4648H14.4922C15.0508 14.4648 15.4688 14.3555 15.7461 14.1367C16.0234 13.9141 16.1621 13.5918 16.1621 13.1699C16.1621 12.7441 16.0449 12.4297 15.8105 12.2266C15.5801 12.0234 15.2168 11.9219 14.7207 11.9219H13.8945V14.4648ZM17.9961 13.1055C17.9961 14.0273 17.707 14.7324 17.1289 15.2207C16.5547 15.709 15.7363 15.9531 14.6738 15.9531H13.8945V19H12.0781V10.4336H14.8145C15.8535 10.4336 16.6426 10.6582 17.1816 11.1074C17.7246 11.5527 17.9961 12.2188 17.9961 13.1055ZM26.7207 14.6348C26.7207 16.0449 26.3184 17.125 25.5137 17.875C24.7129 18.625 23.5547 19 22.0391 19H19.6133V10.4336H22.3027C23.7012 10.4336 24.7871 10.8027 25.5605 11.541C26.334 12.2793 26.7207 13.3105 26.7207 14.6348ZM24.834 14.6816C24.834 12.8418 24.0215 11.9219 22.3965 11.9219H21.4297V17.5H22.209C23.959 17.5 24.834 16.5605 24.834 14.6816ZM30.2832 19H28.4961V10.4336H33.4062V11.9219H30.2832V14.1309H33.1895V15.6133H30.2832V19Z" fill="white"/>
</svg>
