<svg width="16" height="16" viewBox="0 0 16 16" fill="none" xmlns="http://www.w3.org/2000/svg">
<path d="M3.91882 4.73828H0.554688V15.0808H3.91882V4.73828Z" fill="#1D1D1D"/>
<path d="M13.0862 4.85957C13.0505 4.84829 13.0166 4.83606 12.979 4.82572C12.9339 4.81538 12.8888 4.80692 12.8427 4.7994C12.664 4.76367 12.4685 4.73828 12.2391 4.73828C10.2778 4.73828 9.03384 6.16461 8.6239 6.71558V4.73828H5.25977V15.0808H8.6239V9.43941C8.6239 9.43941 11.1663 5.89852 12.2391 8.49919C12.2391 10.8206 12.2391 15.0808 12.2391 15.0808H15.6023V8.10147C15.6023 6.53881 14.5313 5.2366 13.0862 4.85957Z" fill="#1D1D1D"/>
<path d="M2.20008 3.31814C3.10881 3.31814 3.84548 2.58147 3.84548 1.67274C3.84548 0.764013 3.10881 0.0273438 2.20008 0.0273438C1.29136 0.0273438 0.554688 0.764013 0.554688 1.67274C0.554688 2.58147 1.29136 3.31814 2.20008 3.31814Z" fill="#1D1D1D"/>
</svg>
