<svg width="18" height="17" viewBox="0 0 18 17" fill="none" xmlns="http://www.w3.org/2000/svg">
<path d="M10.3385 7.4375V7.7875H10.6885H12.9385C13.0334 7.7875 13.1057 7.83931 13.1348 7.90005C13.1634 7.9598 13.1539 8.02796 13.1061 8.07908L13.1048 8.08044L9.16793 12.3298C9.16784 12.3299 9.16775 12.33 9.16766 12.3301C9.12826 12.3722 9.06764 12.4 9.00104 12.4C8.93287 12.4 8.87329 12.3722 8.83526 12.3309L8.83479 12.3304L4.89775 8.08094C4.89769 8.08088 4.89763 8.08081 4.89757 8.08075C4.84654 8.02531 4.83954 7.9573 4.86658 7.90156L4.86698 7.90074C4.89643 7.83962 4.96962 7.7875 5.06355 7.7875H7.31355H7.66355V7.4375V0.53125C7.66355 0.449879 7.73973 0.35 7.87605 0.35H10.126C10.2624 0.35 10.3385 0.449879 10.3385 0.53125V7.4375Z" fill="white" stroke="white" stroke-width="0.7"/>
<path d="M15.1875 11.6875V14.875H2.8125V11.6875H0.5625V15.9375C0.5625 16.5251 1.0665 17 1.6875 17H16.3125C16.9346 17 17.4375 16.5251 17.4375 15.9375V11.6875H15.1875Z" fill="white"/>
</svg>
