<svg width="22" height="9" viewBox="0 0 22 9" fill="none" xmlns="http://www.w3.org/2000/svg">
<path d="M1.89453 4.46484H2.49219C3.05078 4.46484 3.46875 4.35547 3.74609 4.13672C4.02344 3.91406 4.16211 3.5918 4.16211 3.16992C4.16211 2.74414 4.04492 2.42969 3.81055 2.22656C3.58008 2.02344 3.2168 1.92188 2.7207 1.92188H1.89453V4.46484ZM5.99609 3.10547C5.99609 4.02734 5.70703 4.73242 5.12891 5.2207C4.55469 5.70898 3.73633 5.95312 2.67383 5.95312H1.89453V9H0.078125V0.433594H2.81445C3.85352 0.433594 4.64258 0.658203 5.18164 1.10742C5.72461 1.55273 5.99609 2.21875 5.99609 3.10547ZM14.7207 4.63477C14.7207 6.04492 14.3184 7.125 13.5137 7.875C12.7129 8.625 11.5547 9 10.0391 9H7.61328V0.433594H10.3027C11.7012 0.433594 12.7871 0.802734 13.5605 1.54102C14.334 2.2793 14.7207 3.31055 14.7207 4.63477ZM12.834 4.68164C12.834 2.8418 12.0215 1.92188 10.3965 1.92188H9.42969V7.5H10.209C11.959 7.5 12.834 6.56055 12.834 4.68164ZM18.2832 9H16.4961V0.433594H21.4062V1.92188H18.2832V4.13086H21.1895V5.61328H18.2832V9Z" fill="white"/>
</svg>
